<?xml version="1.0" encoding="utf-8"?>
<!-- Generator: Adobe Illustrator 16.0.0, SVG Export Plug-In . SVG Version: 6.00 Build 0)  -->
<!DOCTYPE svg PUBLIC "-//W3C//DTD SVG 1.1//EN" "http://www.w3.org/Graphics/SVG/1.1/DTD/svg11.dtd">
<svg version="1.1" id="design" xmlns="http://www.w3.org/2000/svg" xmlns:xlink="http://www.w3.org/1999/xlink" x="0px" y="0px"
	 width="32px" height="32px" viewBox="0 0 32 32" enable-background="new 0 0 32 32" xml:space="preserve">
<circle fill="#FFFFFF" cx="16" cy="16" r="16"/>
<g>
	<path fill="#1B292B" d="M11.272,20.97l1.509-2.062c0.828,0.792,1.785,1.325,2.852,1.325c1.271,0,2.099-0.533,2.099-1.564
		c0-1.178-0.626-1.877-3.497-1.877v-2.3c2.338,0,3.073-0.718,3.073-1.803c0-0.938-0.552-1.454-1.564-1.454
		c-0.92,0-1.62,0.423-2.448,1.141L11.64,10.37c1.27-1.067,2.632-1.693,4.251-1.693c2.834,0,4.692,1.325,4.692,3.772
		c0,1.362-0.735,2.429-2.208,3.018v0.092c1.527,0.46,2.65,1.564,2.65,3.331c0,2.559-2.337,3.994-5.061,3.994
		C13.793,22.884,12.266,22.129,11.272,20.97z"/>
</g>
</svg>
